<?xml version="1.0" encoding="UTF-8" standalone="no"?>
<svg
   xmlns:dc="http://purl.org/dc/elements/1.1/"
   xmlns:cc="http://creativecommons.org/ns#"
   xmlns:rdf="http://www.w3.org/1999/02/22-rdf-syntax-ns#"
   xmlns:svg="http://www.w3.org/2000/svg"
   xmlns="http://www.w3.org/2000/svg"
   style="fill:#333333"
   height="32"
   width="32"
   id="svg26"
   version="1.1">
  <metadata
     id="metadata32">
    <rdf:RDF>
      <cc:Work
         rdf:about="">
        <dc:format>image/svg+xml</dc:format>
        <dc:type
           rdf:resource="http://purl.org/dc/dcmitype/StillImage" />
        <dc:title></dc:title>
      </cc:Work>
    </rdf:RDF>
  </metadata>
  <defs
     id="defs30" />
  <g
     style="fill:#333333"
     id="g8">
    <path
       style="fill:#333333"
       id="path2"
       d="M 0,4 V 29 H 32 V 4 Z M 30,27 H 2 V 6 h 28 z" />
    <path
       style="fill:#333333"
       id="path4"
       d="M 0,4 V 29 H 32 V 4 Z M 30,27 H 2 V 6 h 28 z" />
    <path
       style="fill:#333333"
       id="path6"
       d="M 0,4 V 29 H 32 V 4 Z M 30,27 H 2 V 6 h 28 z" />
  </g>
  <g
     style="fill:#333333"
     id="g16">
    <polygon
       style="fill:#333333"
       id="polygon10"
       points="7,16.2 8.9,14.3 7.9,13.3 4.9,16.2 7.9,19.2 8.9,18.2 " />
    <polygon
       style="fill:#333333"
       id="polygon12"
       points="7,16.2 8.9,14.3 7.9,13.3 4.9,16.2 7.9,19.2 8.9,18.2 " />
    <polygon
       style="fill:#333333"
       id="polygon14"
       points="7,16.2 8.9,14.3 7.9,13.3 4.9,16.2 7.9,19.2 8.9,18.2 " />
  </g>
  <g
     style="fill:#333333"
     id="g24">
    <polygon
       style="fill:#333333"
       id="polygon18"
       points="27.5,16.2 24.5,13.3 23.4,14.3 25.3,16.2 23.4,18.2 24.5,19.2 " />
    <polygon
       style="fill:#333333"
       id="polygon20"
       points="27.5,16.2 24.5,13.3 23.4,14.3 25.3,16.2 23.4,18.2 24.5,19.2 " />
    <polygon
       style="fill:#333333"
       id="polygon22"
       points="27.5,16.2 24.5,13.3 23.4,14.3 25.3,16.2 23.4,18.2 24.5,19.2 " />
  </g>
</svg>
