<?xml version="1.0" encoding="UTF-8" standalone="no"?>
<svg
   xmlns:dc="http://purl.org/dc/elements/1.1/"
   xmlns:cc="http://creativecommons.org/ns#"
   xmlns:rdf="http://www.w3.org/1999/02/22-rdf-syntax-ns#"
   xmlns:svg="http://www.w3.org/2000/svg"
   xmlns="http://www.w3.org/2000/svg"
   height="32"
   width="32"
   id="svg74"
   version="1.1">
  <metadata
     id="metadata80">
    <rdf:RDF>
      <cc:Work
         rdf:about="">
        <dc:format>image/svg+xml</dc:format>
        <dc:type
           rdf:resource="http://purl.org/dc/dcmitype/StillImage" />
        <dc:title></dc:title>
      </cc:Work>
    </rdf:RDF>
  </metadata>
  <defs
     id="defs78" />
  <g
     style="fill:#333333"

     id="g8">
    <path
       style="fill:#333333"
       id="path2"
       class="themeableSvgPath"
       d="M 0,10 H 10 V 0 H 0 Z M 2,2 H 8 V 8 H 2 Z" />
    <path
       style="fill:#333333"
       id="path4"
       class="themeableSvgPath"
       d="M 0,10 H 10 V 0 H 0 Z M 2,2 H 8 V 8 H 2 Z" />
    <path
       style="fill:#333333"
       id="path6"
       class="themeableSvgPath"
       d="M 0,10 H 10 V 0 H 0 Z M 2,2 H 8 V 8 H 2 Z" />
  </g>
  <g
     style="fill:#333333"

     id="g16">
    <path
       style="fill:#333333"
       id="path10"
       class="themeableSvgPath"
       d="M 0,21 H 10 V 11 H 0 Z m 2,-8 h 6 v 6 H 2 Z" />
    <path
       style="fill:#333333"
       id="path12"
       class="themeableSvgPath"
       d="M 0,21 H 10 V 11 H 0 Z m 2,-8 h 6 v 6 H 2 Z" />
    <path
       style="fill:#333333"
       id="path14"
       class="themeableSvgPath"
       d="M 0,21 H 10 V 11 H 0 Z m 2,-8 h 6 v 6 H 2 Z" />
  </g>
  <g
     style="fill:#333333"

     id="g24">
    <path
       style="fill:#333333"
       id="path18"
       class="themeableSvgPath"
       d="M 0,32 H 10 V 22 H 0 Z m 2,-8 h 6 v 6 H 2 Z" />
    <path
       style="fill:#333333"
       id="path20"
       class="themeableSvgPath"
       d="M 0,32 H 10 V 22 H 0 Z m 2,-8 h 6 v 6 H 2 Z" />
    <path
       style="fill:#333333"
       id="path22"
       class="themeableSvgPath"
       d="M 0,32 H 10 V 22 H 0 Z m 2,-8 h 6 v 6 H 2 Z" />
  </g>
  <g
     style="fill:#333333"

     id="g32">
    <path
       style="fill:#333333"
       id="path26"
       class="themeableSvgPath"
       d="M 11,10 H 21 V 0 H 11 Z m 2,-8 h 6 v 6 h -6 z" />
    <path
       style="fill:#333333"
       id="path28"
       class="themeableSvgPath"
       d="M 11,10 H 21 V 0 H 11 Z m 2,-8 h 6 v 6 h -6 z" />
    <path
       style="fill:#333333"
       id="path30"
       class="themeableSvgPath"
       d="M 11,10 H 21 V 0 H 11 Z m 2,-8 h 6 v 6 h -6 z" />
  </g>
  <g
     style="fill:#333333"

     id="g40">
    <path
       style="fill:#333333"
       id="path34"
       class="themeableSvgPath"
       d="M 22,0 V 10 H 32 V 0 Z m 8,8 H 24 V 2 h 6 z" />
    <path
       style="fill:#333333"
       id="path36"
       class="themeableSvgPath"
       d="M 22,0 V 10 H 32 V 0 Z m 8,8 H 24 V 2 h 6 z" />
    <path
       style="fill:#333333"
       id="path38"
       class="themeableSvgPath"
       d="M 22,0 V 10 H 32 V 0 Z m 8,8 H 24 V 2 h 6 z" />
  </g>
  <g
     style="fill:#333333"

     id="g48">
    <path
       style="fill:#333333"
       id="path42"
       class="themeableSvgPath"
       d="M 11,21 H 21 V 11 H 11 Z m 2,-8 h 6 v 6 h -6 z" />
    <path
       style="fill:#333333"
       id="path44"
       class="themeableSvgPath"
       d="M 11,21 H 21 V 11 H 11 Z m 2,-8 h 6 v 6 h -6 z" />
    <path
       style="fill:#333333"
       id="path46"
       class="themeableSvgPath"
       d="M 11,21 H 21 V 11 H 11 Z m 2,-8 h 6 v 6 h -6 z" />
  </g>
  <g
     style="fill:#333333"

     id="g56">
    <path
       style="fill:#333333"
       id="path50"
       class="themeableSvgPath"
       d="M 22,21 H 32 V 11 H 22 Z m 2,-8 h 6 v 6 h -6 z" />
    <path
       style="fill:#333333"
       id="path52"
       class="themeableSvgPath"
       d="M 22,21 H 32 V 11 H 22 Z m 2,-8 h 6 v 6 h -6 z" />
    <path
       style="fill:#333333"
       id="path54"
       class="themeableSvgPath"
       d="M 22,21 H 32 V 11 H 22 Z m 2,-8 h 6 v 6 h -6 z" />
  </g>
  <g
     style="fill:#333333"

     id="g64">
    <path
       style="fill:#333333"
       id="path58"
       class="themeableSvgPath"
       d="M 11,32 H 21 V 22 H 11 Z m 2,-8 h 6 v 6 h -6 z" />
    <path
       style="fill:#333333"
       id="path60"
       class="themeableSvgPath"
       d="M 11,32 H 21 V 22 H 11 Z m 2,-8 h 6 v 6 h -6 z" />
    <path
       style="fill:#333333"
       id="path62"
       class="themeableSvgPath"
       d="M 11,32 H 21 V 22 H 11 Z m 2,-8 h 6 v 6 h -6 z" />
  </g>
  <g
     style="fill:#333333"

     id="g72">
    <path
       style="fill:#333333"
       id="path66"
       class="themeableSvgPath"
       d="M 22,32 H 32 V 22 H 22 Z m 2,-8 h 6 v 6 h -6 z" />
    <path
       style="fill:#333333"
       id="path68"
       class="themeableSvgPath"
       d="M 22,32 H 32 V 22 H 22 Z m 2,-8 h 6 v 6 h -6 z" />
    <path
       style="fill:#333333"
       id="path70"
       class="themeableSvgPath"
       d="M 22,32 H 32 V 22 H 22 Z m 2,-8 h 6 v 6 h -6 z" />
  </g>
</svg>
